/vscmnt/brussel_pixiu_data/_data_brussel/112/vsc11236/PredSimResults/SUBJ07mtu3D/weighted-LRposFixed/expIG/worker_05.mot
version=1
nRows=4
nColumns=50
inDegrees=yes
endheader
                time	         pelvis_tilt	         pelvis_list	     pelvis_rotation	           pelvis_tx	           pelvis_ty	           pelvis_tz	       hip_flexion_r	     hip_adduction_r	      hip_rotation_r	        knee_angle_r	       ankle_angle_r	         mtp_angle_r	       hip_flexion_l	     hip_adduction_l	      hip_rotation_l	        knee_angle_l	       ankle_angle_l	         mtp_angle_l	    lumbar_extension	      lumbar_bending	     lumbar_rotation	 ercspn_r/activation	 intobl_r/activation	 extobl_r/activation	    abd_r/activation	    add_r/activation	hamstrings_r/activation	bifemsh_r/activation	glut_max_r/activation	iliopsoas_r/activation	rect_fem_r/activation	  vasti_r/activation	gastroc_r/activation	 soleus_r/activation	tib_ant_r/activation	 ercspn_l/activation	 intobl_l/activation	 extobl_l/activation	    abd_l/activation	    add_l/activation	hamstrings_l/activation	bifemsh_l/activation	glut_max_l/activation	iliopsoas_l/activation	rect_fem_l/activation	  vasti_l/activation	gastroc_l/activation	 soleus_l/activation	tib_ant_l/activation	
          0.00000000	         -6.68823144	         -3.82543848	         10.11453935	          0.00000000	          0.84671556	         -0.01525495	         31.09469477	         -0.72400471	         -8.54799452	         -4.23924641	          7.10040613	          0.24625702	        -11.63872907	         -4.31794756	          6.10670401	         -6.96947104	          8.95282659	         27.52556310	         -5.49374015	          1.54395209	         -3.18034583	          0.09362117	          0.18352258	          0.02944030	          0.01197173	          0.15153573	          0.05004990	          0.18129612	          0.01390391	          0.07563770	          0.00999999	          0.00999999	          0.01371370	          0.00999999	          0.27221453	          0.03613485	          0.00999999	          0.00999999	          0.04189364	          0.06176761	          0.03180608	          0.13821261	          0.03877427	          0.41432997	          0.00999999	          0.00999999	          0.30734822	          0.27449094	          0.01715817	
          0.01183042	         -6.77254174	         -3.66474113	         10.03520720	          0.01599617	          0.84475113	         -0.01482412	         31.24377525	         -0.58211748	         -7.72395438	         -6.12062462	          6.78650675	          0.23785696	        -11.74645296	         -4.17490796	          5.54432807	         -8.71320665	          8.36546019	         29.24028364	         -5.29486332	          2.01760410	         -3.25051523	          0.07820183	          0.15939578	          0.02459151	          0.00999999	          0.20961158	          0.04740423	          0.15143679	          0.07652140	          0.06318023	          0.00999999	          0.00999999	          0.02299403	          0.01943168	          0.27899893	          0.08851218	          0.00999999	          0.00999999	          0.03499379	          0.11258146	          0.02656764	          0.11544910	          0.03238818	          0.42929943	          0.00999999	          0.00999999	          0.26369949	          0.25826109	          0.01433223	
          0.02366083	         -6.83882224	         -3.50408210	          9.89401626	          0.03231981	          0.84298231	         -0.01435520	         31.18173295	         -0.44714617	         -6.87175155	         -7.83199752	          6.44027650	          0.23154636	        -11.67538314	         -4.01305773	          4.93218187	        -10.86182869	          7.65321986	         30.93802816	         -5.07779969	          2.51483218	         -3.29973877	          0.07504818	          0.13314341	          0.02054130	          0.05972039	          0.20147126	          0.05572317	          0.12649527	          0.10129430	          0.05277449	          0.00999999	          0.00999999	          0.01920693	          0.01623129	          0.32169463	          0.11210157	          0.00999999	          0.00999999	          0.02923034	          0.11034615	          0.02371882	          0.09643472	          0.02705387	          0.41446038	          0.00999999	          0.00999999	          0.22026838	          0.23957292	          0.01197173	
          0.03549125	         -6.88895995	         -3.33939814	          9.69188236	          0.04875587	          0.84157090	         -0.01378524	         30.94348884	         -0.28799285	         -6.10357291	         -9.24661277	          6.01782751	          0.21608830	        -11.35844779	         -3.83408322	          4.27896475	        -13.48821787	          6.75696540	         32.54775630	         -4.86407665	          3.01708662	         -3.32673671	          0.08446851	          0.11121479	          0.01715817	          0.10409186	          0.20840967	          0.05258899	          0.10566159	          0.13387450	          0.04408257	          0.00999999	          0.00999999	          0.01604357	          0.01355801	          0.34315785	          0.14228835	          0.00999999	          0.00999999	          0.02441612	          0.11686965	          0.02406467	          0.08055200	          0.02259812	          0.39102848	          0.00999999	          0.00999999	          0.18399034	          0.20262801	          0.00999999	
